<?xml version="1.0" encoding="utf-8"?>
<!-- Generator: Adobe Illustrator 16.0.0, SVG Export Plug-In . SVG Version: 6.00 Build 0)  -->
<!DOCTYPE svg PUBLIC "-//W3C//DTD SVG 1.1//EN" "http://www.w3.org/Graphics/SVG/1.1/DTD/svg11.dtd">
<svg version="1.1" id="Layer_3" xmlns="http://www.w3.org/2000/svg" xmlns:xlink="http://www.w3.org/1999/xlink" x="0px" y="0px"
	 width="293.868px" height="49.293px" viewBox="0 -1.721 293.868 49.293" enable-background="new 0 -1.721 293.868 49.293"
	 xml:space="preserve">
<path fill="#FFFFFE" d="M25.26,32.285c-2.568,1.825-4.936,1.563-6.07,1.563c-7.688,0-7.771-5.545-7.771-6.006
	c0-8.864,14.325-6.134,14.325-9.83c0-1.387-1.47-1.681-2.604-1.681c-2.94,0-6.049,0.966-8.78,1.975l0.84-5.125
	c3.318-0.757,6.679-1.302,9.914-1.302c6.637,0,8.822,2.227,8.822,5.713c0,1.05-0.714,11.552-0.714,15.752h-8.065
	c0.027-0.248,0.053-0.496,0.077-0.746L25.26,32.285z M25.672,26.146c0.038-0.724,0.075-1.445,0.113-2.167
	c-1.554,1.092-6.385,1.261-6.385,3.738c0,1.303,1.176,1.681,2.311,1.681c0.756,0,3.502-0.23,3.94-2.972L25.672,26.146z
	 M99.107,32.285c-2.568,1.825-4.936,1.563-6.07,1.563c-7.688,0-7.771-5.545-7.771-6.006c0-8.864,14.325-6.134,14.325-9.83
	c0-1.387-1.47-1.681-2.604-1.681c-2.94,0-6.049,0.966-8.78,1.975l0.84-5.125c3.318-0.757,6.679-1.302,9.914-1.302
	c6.637,0,8.822,2.227,8.822,5.713c0,1.05-0.715,11.552-0.715,15.752h-8.065c0.027-0.248,0.053-0.496,0.077-0.746L99.107,32.285z
	 M99.519,26.146c0.038-0.724,0.075-1.445,0.113-2.167c-1.554,1.092-6.385,1.261-6.385,3.738c0,1.303,1.176,1.681,2.311,1.681
	c0.756,0,3.502-0.23,3.94-2.972L99.519,26.146z M51.601,30.783h-0.084c-1.89,2.059-4.243,3.065-7.183,3.065
	c-5.545,0-8.906-4.284-8.906-9.577c0-6.049,3.319-12.392,12.603-12.392c1.386,0,2.73,0.125,4.075,0.293
	c0.126-2.269,0.168-4.536,0.21-6.847h8.275c-0.336,4.367-0.714,8.484-0.966,12.938c-0.294,4.494-0.546,9.199-0.546,15.08h-7.604
	L51.601,30.783z M49.71,17.383c-4.243,0-6.301,3.109-6.301,6.428c0,2.27,1.218,4.326,3.739,4.326c4.537,0,4.579-6.553,4.621-10.502
	C51.097,17.467,50.425,17.383,49.71,17.383z M78.79,12.385h8.359c-3.276,6.889-6.301,13.904-9.242,20.961H69.17
	c-2.143-7.057-4.621-13.988-7.057-20.961h8.233l3.612,13.316h0.084L78.79,12.385z M118.225,15.115l0.084,0.084
	c1.974-2.479,4.62-3.318,7.855-3.318c4.116,0,7.687,1.554,7.687,6.679c0,1.134-0.588,9.536-0.588,14.786h-8.275
	c0.252-3.654,0.631-7.309,0.631-10.963c0-2.059-0.631-3.949-3.066-3.949c-2.143,0-3.571,1.471-4.159,3.444
	c-0.714,2.227-0.882,6.974-1.05,11.468h-8.359c0.84-6.931,1.134-13.945,1.26-20.961h8.191L118.225,15.115z M154.149,18.896
	c-1.723-0.588-3.529-1.009-5.336-1.009c-3.234,0-5.293,1.891-5.293,5.168c0,3.15,1.68,4.789,4.83,4.789
	c1.766,0,3.572-0.42,5.209-1.009l-1.008,6.259c-2.059,0.504-4.158,0.756-6.258,0.756c-6.848,0-10.755-3.695-10.755-10.627
	c0-2.227,0.546-11.342,11.132-11.342c2.73,0,4.958,0.252,7.1,0.798L154.149,18.896z M163.586,24.104c0,3.276,2.73,4.452,5.504,4.452
	c2.479,0,4.998-0.713,7.351-1.386l-1.008,5.882c-2.396,0.504-4.873,0.797-7.31,0.797c-6.68,0-12.518-2.016-12.518-10.291
	c0-2.227,0.881-11.678,12.055-11.678c6.892,0,10.67,3.234,10.67,9.073c0,1.05-0.084,2.101-0.293,3.149L163.586,24.104
	L163.586,24.104z M170.603,20.281c0-2.437-1.008-3.695-3.024-3.695c-2.269,0-3.527,1.89-3.738,3.695H170.603z M196.345,30.783
	h-0.084c-1.892,2.059-4.244,3.065-7.185,3.065c-5.545,0-8.906-4.284-8.906-9.577c0-6.049,3.318-12.392,12.603-12.392
	c1.388,0,2.729,0.125,4.076,0.293c0.125-2.269,0.168-4.536,0.209-6.847h8.274c-0.336,4.367-0.713,8.484-0.965,12.938
	c-0.295,4.494-0.547,9.199-0.547,15.08h-7.604L196.345,30.783z M194.454,17.383c-4.244,0-6.301,3.109-6.301,6.428
	c0,2.27,1.217,4.326,3.738,4.326c4.537,0,4.578-6.553,4.621-10.502C195.84,17.467,195.167,17.383,194.454,17.383z"/>
<path fill="#EF7622" d="M244.237,11.447c1.715,0,3.365,0.264,4.949,0.789s2.922,1.283,4.016,2.271
	c1.094,0.989,1.898,2.145,2.418,3.466c0.521,1.321,0.777,2.743,0.777,4.265c0,1.48-0.23,2.889-0.695,4.224
	c-0.463,1.336-1.248,2.588-2.354,3.756c-1.104,1.17-2.515,2.045-4.224,2.625c-1.709,0.582-3.518,0.872-5.426,0.872
	c-1.758,0-3.445-0.257-5.064-0.77c-1.616-0.511-2.971-1.258-4.057-2.239c-1.086-0.982-1.902-2.158-2.449-3.527
	c-0.545-1.371-0.817-2.809-0.817-4.316c0-1.507,0.267-2.946,0.799-4.315c0.531-1.371,1.377-2.603,2.531-3.695
	c1.153-1.092,2.584-1.933,4.284-2.521C240.625,11.742,242.397,11.447,244.237,11.447z M244.092,17.549
	c-0.887,0-1.674,0.228-2.366,0.684c-0.69,0.457-1.213,1.125-1.565,2.003c-0.353,0.88-0.529,1.838-0.529,2.874
	c0,1.522,0.381,2.688,1.143,3.497c0.76,0.811,1.715,1.214,2.863,1.214c0.871,0,1.652-0.23,2.346-0.694
	c0.691-0.463,1.213-1.148,1.566-2.056c0.352-0.905,0.529-1.877,0.529-2.916c0-0.856-0.14-1.631-0.416-2.323
	c-0.277-0.691-0.729-1.244-1.359-1.66C245.672,17.756,244.937,17.549,244.092,17.549z M281.293,33.174
	c-1.58-0.027-2.895-0.041-3.944-0.041c-1.304,0-2.608,0.014-3.927,0.041l-0.022-2.842c-0.498,0.621-0.92,1.089-1.267,1.399
	c-0.346,0.312-0.723,0.584-1.131,0.819s-0.862,0.439-1.369,0.612c-0.504,0.173-1.086,0.308-1.741,0.403
	c-0.656,0.097-1.324,0.146-2.002,0.146c-1.095,0-2.127-0.128-3.103-0.384c-0.977-0.256-1.834-0.688-2.574-1.297
	c-0.739-0.609-1.243-1.302-1.514-2.076c-0.27-0.773-0.404-1.673-0.404-2.697c0-0.248,0.021-0.636,0.063-1.162l0.33-4.711
	c0.099-1.729,0.188-3.645,0.271-5.748c0.057-1.287,0.084-2.504,0.084-3.652c1.715,0.028,3.176,0.041,4.379,0.041
	c1.217,0,2.559-0.013,4.024-0.041l-0.644,7.906c-0.098,1.204-0.149,2.023-0.155,2.459c-0.008,0.438-0.013,0.73-0.013,0.883
	c0,1.453,0.296,2.437,0.886,2.947s1.293,0.769,2.11,0.769c0.334,0,0.666-0.05,1-0.146c0.332-0.096,0.65-0.234,0.957-0.414
	c0.265-0.166,0.506-0.373,0.729-0.623c0.233-0.262,0.442-0.58,0.623-0.955c0.224-0.455,0.39-0.947,0.5-1.473
	c0.151-0.732,0.271-1.66,0.354-2.781c0.055-0.814,0.129-2.227,0.223-4.231l0.162-4.339c1.783,0.028,3.248,0.041,4.395,0.041
	c1.285,0,2.578-0.013,3.877-0.041c-0.316,3.516-0.564,6.855-0.744,10.023S281.39,28.899,281.293,33.174z M231.899,11.881
	l-7.98,0.104l-5.184,13.181l-3.537-13.181h-8.416l7.362,21.604l-5.873,11.313h8.726l14.902-32.722"/>
<g>
	<path fill="#FFFFFE" d="M123.281,44.921c0.023-0.396,0.048-1.043,0.048-1.644v-6.872h1.476v3.479h0.023
		c0.359-0.563,0.996-0.936,1.871-0.936c1.428,0,2.447,1.188,2.435,2.962c0,2.1-1.331,3.143-2.65,3.143
		c-0.755,0-1.427-0.288-1.847-1.008h-0.024l-0.071,0.876H123.281z M124.804,42.51c0,0.12,0.012,0.24,0.035,0.349
		c0.156,0.587,0.672,1.031,1.308,1.031c0.924,0,1.487-0.744,1.487-1.919c0-1.031-0.492-1.871-1.475-1.871
		c-0.6,0-1.141,0.432-1.308,1.079c-0.024,0.108-0.048,0.24-0.048,0.384V42.51z"/>
	<path fill="#FFFFFE" d="M131.175,39.08l1.057,3.13c0.119,0.36,0.239,0.804,0.323,1.14h0.036c0.096-0.336,0.203-0.768,0.312-1.151
		l0.911-3.118h1.584l-1.463,3.981c-0.805,2.184-1.344,3.154-2.039,3.754c-0.576,0.517-1.176,0.708-1.547,0.756l-0.336-1.247
		c0.252-0.06,0.563-0.192,0.863-0.408c0.275-0.18,0.6-0.527,0.803-0.923c0.061-0.108,0.097-0.192,0.097-0.264
		c0-0.061-0.013-0.145-0.084-0.288l-2.136-5.361H131.175z"/>
	<path fill="#FFFFFE" d="M142.023,44.921l-0.096-0.647h-0.036c-0.36,0.456-0.972,0.779-1.728,0.779
		c-1.175,0-1.834-0.852-1.834-1.739c0-1.475,1.307-2.219,3.466-2.206v-0.097c0-0.384-0.156-1.02-1.188-1.02
		c-0.575,0-1.175,0.181-1.571,0.433l-0.287-0.96c0.432-0.264,1.187-0.516,2.11-0.516c1.87,0,2.411,1.188,2.411,2.459v2.11
		c0,0.527,0.023,1.044,0.084,1.403H142.023z M141.832,42.067c-1.044-0.024-2.039,0.204-2.039,1.092c0,0.575,0.371,0.839,0.84,0.839
		c0.588,0,1.02-0.384,1.15-0.803c0.037-0.108,0.049-0.229,0.049-0.324V42.067z"/>
	<path fill="#FFFFFE" d="M150.218,36.406v6.872c0,0.601,0.023,1.248,0.047,1.644h-1.318l-0.061-0.924h-0.023
		c-0.348,0.648-1.056,1.056-1.907,1.056c-1.392,0-2.495-1.188-2.495-2.986c-0.012-1.955,1.211-3.118,2.615-3.118
		c0.803,0,1.379,0.336,1.643,0.768h0.023v-3.311H150.218z M148.742,41.515c0-0.12-0.012-0.264-0.035-0.384
		c-0.132-0.575-0.6-1.043-1.271-1.043c-0.947,0-1.475,0.839-1.475,1.931c0,1.067,0.527,1.847,1.463,1.847
		c0.6,0,1.127-0.407,1.271-1.043c0.035-0.132,0.047-0.276,0.047-0.432V41.515z"/>
	<path fill="#FFFFFE" d="M152.74,39.08l0.947,2.962c0.168,0.517,0.288,0.984,0.396,1.464h0.035c0.108-0.479,0.24-0.936,0.396-1.464
		l0.924-2.962h1.559l-2.23,5.841h-1.451l-2.172-5.841H152.74z"/>
	<path fill="#FFFFFE" d="M161.114,44.921l-0.096-0.647h-0.036c-0.359,0.456-0.971,0.779-1.727,0.779
		c-1.176,0-1.836-0.852-1.836-1.739c0-1.475,1.308-2.219,3.467-2.206v-0.097c0-0.384-0.156-1.02-1.188-1.02
		c-0.576,0-1.176,0.181-1.571,0.433l-0.288-0.96c0.432-0.264,1.188-0.516,2.111-0.516c1.871,0,2.41,1.188,2.41,2.459v2.11
		c0,0.527,0.024,1.044,0.084,1.403H161.114z M160.921,42.067c-1.043-0.024-2.038,0.204-2.038,1.092c0,0.575,0.372,0.839,0.839,0.839
		c0.588,0,1.02-0.384,1.152-0.803c0.035-0.108,0.047-0.229,0.047-0.324V42.067z"/>
	<path fill="#FFFFFE" d="M163.923,40.82c0-0.672-0.012-1.235-0.048-1.739h1.296l0.071,0.876h0.036
		c0.252-0.456,0.887-1.008,1.859-1.008c1.02,0,2.074,0.659,2.074,2.507v3.466h-1.475v-3.298c0-0.84-0.313-1.476-1.115-1.476
		c-0.588,0-0.996,0.42-1.152,0.863c-0.048,0.132-0.06,0.313-0.06,0.48v3.43h-1.487V40.82z"/>
	<path fill="#FFFFFE" d="M175.082,44.741c-0.313,0.144-0.924,0.3-1.656,0.3c-1.822,0-3.01-1.163-3.01-2.975
		c0-1.751,1.199-3.118,3.25-3.118c0.539,0,1.092,0.12,1.428,0.275l-0.264,1.104c-0.24-0.107-0.588-0.228-1.116-0.228
		c-1.128,0-1.799,0.827-1.786,1.895c0,1.2,0.779,1.884,1.786,1.884c0.517,0,0.876-0.108,1.163-0.229L175.082,44.741z"/>
	<path fill="#FFFFFE" d="M177.111,42.414c0.035,1.056,0.863,1.512,1.799,1.512c0.684,0,1.176-0.097,1.619-0.265l0.215,1.02
		c-0.503,0.204-1.199,0.36-2.038,0.36c-1.896,0-3.011-1.163-3.011-2.95c0-1.619,0.984-3.143,2.855-3.143
		c1.895,0,2.518,1.559,2.518,2.843c0,0.275-0.023,0.491-0.048,0.623H177.111z M179.677,41.383c0.012-0.54-0.229-1.427-1.211-1.427
		c-0.912,0-1.296,0.827-1.355,1.427H179.677z"/>
	<path fill="#FFFFFE" d="M187.644,36.406v6.872c0,0.601,0.023,1.248,0.048,1.644h-1.319l-0.061-0.924h-0.023
		c-0.348,0.648-1.055,1.056-1.906,1.056c-1.393,0-2.495-1.188-2.495-2.986c-0.013-1.955,1.212-3.118,2.614-3.118
		c0.804,0,1.379,0.336,1.643,0.768h0.025v-3.311H187.644z M186.169,41.515c0-0.12-0.013-0.264-0.037-0.384
		c-0.131-0.575-0.6-1.043-1.271-1.043c-0.947,0-1.475,0.839-1.475,1.931c0,1.067,0.527,1.847,1.463,1.847
		c0.6,0,1.127-0.407,1.271-1.043c0.036-0.132,0.049-0.276,0.049-0.432V41.515z"/>
	<path fill="#FFFFFE" d="M189.23,36.406h1.488v8.516h-1.488V36.406z"/>
	<path fill="#FFFFFE" d="M193.886,37.449c0,0.443-0.324,0.791-0.84,0.791c-0.492,0-0.814-0.348-0.814-0.791
		c0-0.456,0.334-0.804,0.826-0.804C193.562,36.646,193.875,36.993,193.886,37.449z M192.316,44.921V39.08h1.486v5.841H192.316z"/>
	<path fill="#FFFFFE" d="M195.554,44.921v-4.737h-0.791V39.08h0.791v-0.252c0-0.756,0.205-1.511,0.709-1.991
		c0.432-0.407,1.02-0.563,1.523-0.563c0.395,0,0.707,0.061,0.947,0.145l-0.109,1.139c-0.154-0.06-0.359-0.107-0.623-0.107
		c-0.73,0-0.982,0.611-0.982,1.331v0.3h1.283v1.104h-1.271v4.737H195.554z"/>
	<path fill="#FFFFFE" d="M200.126,42.414c0.037,1.056,0.863,1.512,1.799,1.512c0.684,0,1.176-0.097,1.619-0.265l0.217,1.02
		c-0.504,0.204-1.199,0.36-2.039,0.36c-1.895,0-3.01-1.163-3.01-2.95c0-1.619,0.982-3.143,2.854-3.143
		c1.895,0,2.52,1.559,2.52,2.843c0,0.275-0.025,0.491-0.049,0.623H200.126z M202.693,41.383c0.012-0.54-0.227-1.427-1.211-1.427
		c-0.912,0-1.295,0.827-1.355,1.427H202.693z"/>
</g>
</svg>
