<?xml version="1.0" encoding="utf-8"?>
<!-- Generator: Adobe Illustrator 16.0.0, SVG Export Plug-In . SVG Version: 6.00 Build 0)  -->
<!DOCTYPE svg PUBLIC "-//W3C//DTD SVG 1.1//EN" "http://www.w3.org/Graphics/SVG/1.1/DTD/svg11.dtd">
<svg version="1.1" id="Layer_3" xmlns="http://www.w3.org/2000/svg" xmlns:xlink="http://www.w3.org/1999/xlink" x="0px" y="0px"
	 width="257px" height="49.5px" viewBox="0 0 257 49.5" enable-background="new 0 0 257 49.5" xml:space="preserve">
<path fill="#F16529" d="M206.103,5.231c-0.463,4.705-1.387,20.667-1.514,28.019h-8.357c0.797-9.326,1.26-18.651,1.512-28.019
	H206.103z"/>
<path fill="#F16529" d="M207.319,33.25c0.713-6.344,1.008-12.602,1.092-20.962h8.4c-0.713,6.974-0.756,13.989-0.756,20.962H207.319z
	 M208.62,10.155l0.084-4.957h8.15l-0.211,4.957H208.62z"/>
<path fill="#F16529" d="M217.86,18.717l0.293-5.503h2.898v-2.395c0-3.612,1.766-5.923,7.016-5.923c1.975,0,3.99,0.294,5.881,0.841
	l0.252,5.377c-1.176-0.42-2.395-0.715-3.654-0.715c-1.68,0-2.352,0.756-2.311,2.814h4.705l-0.295,5.503h-4.326
	c-0.293,5.377-0.504,21.299-0.672,26.34h-8.234c0.463-5.041,0.674-20.963,0.967-26.34L217.86,18.717L217.86,18.717z"/>
<path fill="#F16529" d="M240.905,24.007c0,3.277,2.73,4.454,5.504,4.454c2.479,0,4.998-0.715,7.352-1.388l-1.01,5.882
	c-2.395,0.504-4.873,0.799-7.309,0.799c-6.68,0-12.52-2.017-12.52-10.292c0-2.227,0.883-11.679,12.057-11.679
	c6.891,0,10.67,3.234,10.67,9.073c0,1.051-0.084,2.101-0.293,3.15L240.905,24.007L240.905,24.007z M247.921,20.186
	c0-2.437-1.008-3.696-3.023-3.696c-2.27,0-3.529,1.89-3.738,3.696H247.921z"/>
<path fill="#FFFFFE" d="M14.748,11.784c-3.234,0-6.595,0.546-9.914,1.302l-0.84,5.125c2.73-1.008,5.839-1.975,8.78-1.975
	c1.134,0,2.604,0.295,2.604,1.682c0,3.695-14.325,0.965-14.325,9.829c0,0.462,0.084,6.007,7.771,6.007
	c1.134,0,3.501,0.263,6.07-1.563l-0.028,0.313c-0.024,0.25-0.05,0.498-0.077,0.746h8.065c0-4.201,0.714-14.703,0.714-15.753
	C23.568,14.01,21.385,11.784,14.748,11.784z M15.307,26.049l-0.021,0.281c-0.438,2.739-3.184,2.971-3.94,2.971
	c-1.134,0-2.311-0.377-2.311-1.68c0-2.479,4.831-2.646,6.385-3.738C15.38,24.603,15.345,25.325,15.307,26.049z M89.225,17.918
	c0,3.695-14.325,0.965-14.325,9.829c0,0.462,0.084,6.007,7.771,6.007c1.135,0,3.502,0.263,6.07-1.563l-0.028,0.313
	c-0.024,0.25-0.05,0.498-0.077,0.746h8.066c0-4.201,0.714-14.703,0.714-15.753c0-3.486-2.185-5.713-8.821-5.713
	c-3.234,0-6.596,0.546-9.914,1.302l-0.84,5.125c2.73-1.008,5.839-1.975,8.779-1.975C87.754,16.236,89.225,16.531,89.225,17.918z
	 M89.152,26.049l-0.021,0.281c-0.438,2.739-3.184,2.971-3.939,2.971c-1.135,0-2.311-0.377-2.311-1.68
	c0-2.479,4.83-2.646,6.385-3.738C89.228,24.603,89.19,25.325,89.152,26.049z M41.739,12.078c-1.344-0.168-2.688-0.294-4.075-0.294
	c-9.284,0-12.603,6.343-12.603,12.392c0,5.292,3.361,9.578,8.906,9.578c2.94,0,5.293-1.008,7.183-3.065h0.084l-0.126,2.563h7.604
	c0-5.882,0.252-10.586,0.546-15.081c0.252-4.453,0.63-8.57,0.966-12.939h-8.275C41.907,7.542,41.865,9.811,41.739,12.078z
	 M36.782,28.041c-2.521,0-3.739-2.059-3.739-4.326c0-3.319,2.059-6.428,6.301-6.428c0.714,0,1.386,0.084,2.059,0.252
	C41.36,21.488,41.318,28.041,36.782,28.041z M76.783,12.288c-3.276,6.89-6.301,13.905-9.242,20.962h-8.737
	c-2.143-7.057-4.621-13.988-7.057-20.962h8.233l3.612,13.316h0.084l4.747-13.316H76.783z M123.484,18.463
	c0,1.135-0.588,9.537-0.588,14.787h-8.275c0.252-3.654,0.63-7.309,0.63-10.964c0-2.059-0.63-3.948-3.066-3.948
	c-2.143,0-3.571,1.47-4.159,3.443c-0.714,2.227-0.882,6.975-1.05,11.469h-8.359c0.841-6.932,1.134-13.946,1.261-20.962h8.191
	l-0.211,2.73l0.084,0.084c1.975-2.478,4.621-3.318,7.855-3.318C119.915,11.784,123.484,13.338,123.484,18.463z M137.985,27.747
	c1.765,0,3.57-0.42,5.209-1.009l-1.008,6.26c-2.06,0.504-4.159,0.756-6.26,0.756c-6.848,0-10.755-3.695-10.755-10.627
	c0-2.226,0.547-11.342,11.134-11.342c2.729,0,4.957,0.252,7.1,0.798l0.377,6.217c-1.723-0.588-3.529-1.008-5.334-1.008
	c-3.235,0-5.293,1.891-5.293,5.167C133.155,26.109,134.834,27.747,137.985,27.747z M167.966,20.857c0-5.839-3.779-9.073-10.67-9.073
	c-11.174,0-12.057,9.452-12.057,11.679c0,8.275,5.84,10.291,12.518,10.291c2.438,0,4.916-0.293,7.311-0.798l1.008-5.882
	c-2.352,0.673-4.871,1.387-7.35,1.387c-2.773,0-5.504-1.176-5.504-4.453h14.449C167.882,22.958,167.966,21.908,167.966,20.857z
	 M153.474,20.186c0.211-1.807,1.471-3.696,3.738-3.696c2.018,0,3.023,1.26,3.023,3.696H153.474z M194.968,5.231h-8.275
	c-0.041,2.31-0.084,4.58-0.209,6.847c-1.346-0.168-2.689-0.294-4.076-0.294c-9.283,0-12.602,6.343-12.602,12.392
	c0,5.292,3.359,9.578,8.904,9.578c2.941,0,5.293-1.008,7.186-3.065h0.084l-0.127,2.563h7.604c0-5.882,0.252-10.586,0.547-15.081
	C194.253,13.716,194.632,9.599,194.968,5.231z M181.524,28.041c-2.521,0-3.738-2.059-3.738-4.326c0-3.319,2.059-6.428,6.301-6.428
	c0.715,0,1.389,0.084,2.061,0.252C186.104,21.488,186.062,28.041,181.524,28.041z M57.694,39.185c-0.888,0-1.571,0.372-2.003,1.03
	h-0.024l-0.071-0.898h-1.295c0.024,0.552,0.048,1.176,0.048,1.943v6.271h1.475V44.51h0.024c0.3,0.468,0.912,0.778,1.643,0.778
	c1.332,0,2.663-1.02,2.663-3.13C60.153,40.336,59.039,39.185,57.694,39.185z M57.167,44.149c-0.624,0-1.151-0.433-1.295-1.031
	c-0.036-0.132-0.048-0.264-0.048-0.407v-0.898c0-0.12,0.024-0.252,0.06-0.372c0.144-0.647,0.708-1.093,1.319-1.093
	c0.947,0,1.451,0.841,1.451,1.871C58.655,43.37,58.103,44.149,57.167,44.149z M101.435,41.644c0-1.271-0.54-2.459-2.41-2.459
	c-0.924,0-1.68,0.252-2.111,0.516l0.287,0.96c0.396-0.252,0.996-0.433,1.572-0.433c1.031,0,1.188,0.636,1.188,1.02v0.097
	c-2.16-0.013-3.467,0.731-3.467,2.207c0,0.888,0.66,1.738,1.835,1.738c0.756,0,1.367-0.322,1.728-0.779h0.035l0.096,0.647h1.332
	c-0.061-0.358-0.084-0.876-0.084-1.403L101.435,41.644L101.435,41.644z M99.995,43.106c0,0.096-0.012,0.216-0.048,0.323
	c-0.132,0.42-0.563,0.804-1.151,0.804c-0.468,0-0.84-0.265-0.84-0.839c0-0.889,0.996-1.116,2.039-1.092V43.106z M76.691,39.316
	h1.402v1.104h-1.402v2.578c0,0.708,0.191,1.08,0.756,1.08c0.252,0,0.443-0.035,0.575-0.072l0.024,1.127
	c-0.217,0.084-0.6,0.146-1.068,0.146c-0.539,0-0.995-0.181-1.271-0.479c-0.311-0.336-0.455-0.863-0.455-1.631v-2.746h-0.84v-1.105
	h0.84v-1.319l1.439-0.348V39.316z M66.658,41.715v3.442h-1.475v-3.274c0-0.852-0.312-1.486-1.127-1.486
	c-0.576,0-0.983,0.384-1.139,0.828c-0.048,0.119-0.06,0.275-0.06,0.443v3.489H61.37v-8.516h1.487v3.479h0.024
	c0.18-0.276,0.42-0.504,0.731-0.672c0.288-0.168,0.636-0.264,1.008-0.264C65.615,39.185,66.658,39.844,66.658,41.715z
	 M95.663,39.185c0.145,0,0.229,0.012,0.348,0.036v1.391c-0.119-0.023-0.252-0.048-0.432-0.048c-0.707,0-1.188,0.456-1.318,1.114
	c-0.025,0.134-0.049,0.289-0.049,0.457v3.021h-1.475v-3.958c0-0.791-0.012-1.354-0.049-1.883h1.283l0.049,1.114h0.048
	C94.355,39.604,95.04,39.185,95.663,39.185z M81.792,39.185c-1.764,0-3.022,1.176-3.022,3.094c0,1.871,1.271,3.011,2.927,3.011
	c1.486,0,2.998-0.959,2.998-3.105C84.693,40.408,83.53,39.185,81.792,39.185z M81.743,44.221c-0.898,0-1.451-0.852-1.451-1.979
	c0-0.972,0.42-1.979,1.464-1.979c1.007,0,1.415,1.043,1.415,1.955C83.17,43.395,82.583,44.221,81.743,44.221z M70.882,39.185
	c-1.763,0-3.022,1.176-3.022,3.094c0,1.871,1.271,3.011,2.926,3.011c1.487,0,2.999-0.959,2.999-3.105
	C73.786,40.408,72.622,39.185,70.882,39.185z M70.834,44.221c-0.899,0-1.451-0.852-1.451-1.979c0-0.972,0.42-1.979,1.463-1.979
	c1.007,0,1.415,1.043,1.415,1.955C72.263,43.395,71.674,44.221,70.834,44.221z M89.902,40.096h-0.024
	c-0.276-0.479-0.804-0.911-1.69-0.911c-1.404,0-2.65,1.163-2.65,3.082c0,1.655,1.031,2.854,2.482,2.854
	c0.768,0,1.367-0.348,1.703-0.862h0.023v0.504c0,1.259-0.72,1.763-1.68,1.763c-0.707,0-1.33-0.228-1.702-0.442l-0.324,1.114
	c0.504,0.312,1.296,0.468,2.039,0.468c0.804,0,1.644-0.168,2.255-0.707c0.611-0.553,0.863-1.428,0.863-2.65v-3.312
	c0-0.803,0.023-1.282,0.048-1.679h-1.283L89.902,40.096z M89.724,42.603c0,0.168-0.024,0.372-0.061,0.526
	c-0.168,0.528-0.647,0.889-1.199,0.889c-0.924,0-1.428-0.805-1.428-1.799c0-1.188,0.612-1.907,1.439-1.907
	c0.624,0,1.043,0.407,1.199,0.948c0.036,0.119,0.049,0.264,0.049,0.396L89.724,42.603L89.724,42.603z M126.814,44.342
	c0,0.539-0.359,0.946-0.911,0.946c-0.54,0-0.912-0.407-0.912-0.946c0-0.553,0.384-0.947,0.912-0.947
	C126.442,43.395,126.814,43.778,126.814,44.342z M186.081,37.686c0,0.443-0.324,0.791-0.84,0.791c-0.492,0-0.814-0.348-0.814-0.791
	c0-0.456,0.336-0.805,0.826-0.805C185.757,36.883,186.069,37.229,186.081,37.686z M196.077,39.316h1.404v1.104h-1.404v2.578
	c0,0.708,0.193,1.08,0.756,1.08c0.252,0,0.443-0.035,0.576-0.072l0.023,1.127c-0.217,0.084-0.6,0.146-1.066,0.146
	c-0.541,0-0.996-0.181-1.271-0.479c-0.313-0.336-0.455-0.863-0.455-1.631v-2.746h-0.84v-1.105h0.84v-1.319l1.438-0.348V39.316z
	 M192.872,41.691v3.466h-1.477v-3.298c0-0.84-0.313-1.477-1.115-1.477c-0.588,0-0.994,0.42-1.15,0.863
	c-0.049,0.133-0.061,0.313-0.061,0.48v3.43h-1.486v-4.102c0-0.672-0.014-1.235-0.049-1.739h1.295l0.072,0.876h0.035
	c0.252-0.456,0.889-1.008,1.859-1.008C191.815,39.185,192.872,39.844,192.872,41.691z M184.511,39.316h1.486v5.841h-1.486V39.316z
	 M106.344,39.185c-0.888,0-1.571,0.372-2.003,1.03h-0.023l-0.072-0.898h-1.295c0.023,0.552,0.047,1.176,0.047,1.943v6.271h1.476
	V44.51h0.024c0.3,0.468,0.911,0.778,1.643,0.778c1.332,0,2.662-1.02,2.662-3.13C108.802,40.336,107.686,39.185,106.344,39.185z
	 M105.814,44.149c-0.623,0-1.15-0.433-1.295-1.031c-0.035-0.132-0.048-0.264-0.048-0.407v-0.898c0-0.12,0.024-0.252,0.06-0.372
	c0.145-0.647,0.708-1.093,1.32-1.093c0.947,0,1.451,0.841,1.451,1.871C107.304,43.37,106.75,44.149,105.814,44.149z M200.169,37.686
	c0,0.443-0.322,0.791-0.838,0.791c-0.492,0-0.814-0.348-0.814-0.791c0-0.456,0.334-0.805,0.826-0.805
	C199.847,36.883,200.157,37.229,200.169,37.686z M212.589,39.316l-0.061,0.779h-0.023c-0.275-0.479-0.803-0.911-1.689-0.911
	c-1.404,0-2.65,1.163-2.65,3.082c0,1.655,1.031,2.854,2.482,2.854c0.768,0,1.367-0.348,1.703-0.862h0.023v0.504
	c0,1.259-0.721,1.763-1.68,1.763c-0.707,0-1.332-0.228-1.703-0.442l-0.324,1.114c0.504,0.312,1.295,0.468,2.039,0.468
	c0.805,0,1.645-0.168,2.254-0.707c0.613-0.553,0.865-1.428,0.865-2.65v-3.312c0-0.803,0.023-1.282,0.047-1.679H212.589z
	 M212.351,42.603c0,0.168-0.025,0.372-0.061,0.526c-0.168,0.528-0.648,0.889-1.201,0.889c-0.922,0-1.426-0.805-1.426-1.799
	c0-1.188,0.611-1.907,1.439-1.907c0.623,0,1.043,0.407,1.199,0.948c0.035,0.119,0.047,0.264,0.047,0.396v0.947H212.351z
	 M206.96,41.691v3.466h-1.475v-3.298c0-0.84-0.313-1.477-1.115-1.477c-0.588,0-0.996,0.42-1.15,0.863
	c-0.049,0.133-0.063,0.313-0.063,0.48v3.43h-1.486v-4.102c0-0.672-0.012-1.235-0.049-1.739h1.297l0.072,0.876h0.035
	c0.252-0.456,0.887-1.008,1.859-1.008C205.905,39.185,206.96,39.844,206.96,41.691z M176.565,39.185
	c-0.889,0-1.572,0.372-2.004,1.03h-0.023l-0.072-0.898h-1.295c0.023,0.552,0.049,1.176,0.049,1.943v6.271h1.475V44.51h0.025
	c0.299,0.468,0.91,0.778,1.643,0.778c1.33,0,2.662-1.02,2.662-3.13C179.024,40.336,177.909,39.185,176.565,39.185z M176.038,44.149
	c-0.625,0-1.15-0.433-1.297-1.031c-0.035-0.132-0.047-0.264-0.047-0.407v-0.898c0-0.12,0.023-0.252,0.061-0.372
	c0.145-0.647,0.707-1.093,1.318-1.093c0.947,0,1.451,0.841,1.451,1.871C177.524,43.37,176.974,44.149,176.038,44.149z
	 M198.601,39.316h1.484v5.841h-1.484V39.316z M183.165,39.185c0.145,0,0.229,0.012,0.348,0.036v1.391
	c-0.119-0.023-0.252-0.048-0.432-0.048c-0.707,0-1.188,0.456-1.318,1.114c-0.023,0.134-0.049,0.289-0.049,0.457v3.021h-1.475v-3.958
	c0-0.791-0.014-1.354-0.049-1.883h1.283l0.049,1.114h0.047C181.858,39.604,182.542,39.185,183.165,39.185z M135.873,36.642h-1.476
	v3.311h-0.023c-0.264-0.432-0.84-0.768-1.645-0.768c-1.402,0-2.625,1.163-2.613,3.118c0,1.799,1.104,2.985,2.494,2.985
	c0.852,0,1.56-0.407,1.906-1.056h0.024l0.06,0.924h1.319c-0.024-0.396-0.048-1.043-0.048-1.645L135.873,36.642L135.873,36.642z
	 M134.397,42.627c0,0.155-0.012,0.301-0.049,0.433c-0.144,0.636-0.672,1.043-1.271,1.043c-0.937,0-1.463-0.779-1.463-1.847
	c0-1.093,0.526-1.932,1.476-1.932c0.672,0,1.139,0.469,1.271,1.043c0.023,0.12,0.035,0.264,0.035,0.385V42.627L134.397,42.627z
	 M139.942,39.185c-1.871,0-2.854,1.522-2.854,3.143c0,1.787,1.115,2.95,3.011,2.95c0.84,0,1.534-0.156,2.04-0.359l-0.217-1.021
	c-0.444,0.168-0.936,0.265-1.62,0.265c-0.936,0-1.763-0.456-1.799-1.512h3.911c0.023-0.132,0.047-0.348,0.047-0.623
	C142.46,40.743,141.837,39.185,139.942,39.185z M138.502,41.619c0.061-0.6,0.443-1.427,1.355-1.427c0.982,0,1.223,0.887,1.211,1.427
	H138.502z M169.546,44.342c0,0.539-0.357,0.946-0.91,0.946c-0.539,0-0.912-0.407-0.912-0.946c0-0.553,0.385-0.947,0.912-0.947
	C169.175,43.395,169.546,43.778,169.546,44.342z M120.25,39.316h1.583l-1.463,3.98c-0.804,2.185-1.343,3.154-2.039,3.754
	c-0.575,0.518-1.175,0.709-1.547,0.756l-0.336-1.246c0.252-0.061,0.563-0.192,0.863-0.408c0.276-0.18,0.6-0.527,0.804-0.923
	c0.061-0.108,0.096-0.192,0.096-0.265c0-0.061-0.012-0.145-0.084-0.287l-2.135-5.361h1.619l1.056,3.13
	c0.12,0.36,0.239,0.804,0.323,1.14h0.037c0.096-0.336,0.203-0.768,0.311-1.15L120.25,39.316z M115.306,41.715v3.442h-1.475v-3.274
	c0-0.852-0.313-1.486-1.127-1.486c-0.576,0-0.984,0.384-1.14,0.828c-0.048,0.119-0.06,0.275-0.06,0.443v3.489h-1.488v-8.516h1.488
	v3.479h0.023c0.18-0.276,0.42-0.504,0.731-0.672c0.288-0.168,0.636-0.264,1.008-0.264C114.263,39.185,115.306,39.844,115.306,41.715
	z M147.44,43.454c0,1.056-0.826,1.823-2.373,1.823c-0.709,0-1.344-0.168-1.775-0.408l0.287-1.066c0.336,0.203,0.973,0.42,1.5,0.42
	c0.646,0,0.936-0.264,0.936-0.647c0-0.396-0.24-0.6-0.959-0.853c-1.141-0.396-1.619-1.02-1.607-1.702
	c0-1.031,0.852-1.835,2.207-1.835c0.648,0,1.211,0.168,1.547,0.348l-0.287,1.044c-0.252-0.146-0.721-0.336-1.234-0.336
	c-0.527,0-0.816,0.252-0.816,0.611c0,0.372,0.275,0.552,1.021,0.815C146.938,42.051,147.431,42.59,147.44,43.454z M155.722,40.096
	h-0.023c-0.275-0.479-0.803-0.911-1.691-0.911c-1.402,0-2.648,1.163-2.648,3.082c0,1.655,1.031,2.854,2.48,2.854
	c0.77,0,1.367-0.348,1.703-0.862h0.025v0.504c0,1.259-0.721,1.763-1.68,1.763c-0.707,0-1.332-0.228-1.703-0.442l-0.324,1.114
	c0.504,0.312,1.295,0.468,2.039,0.468c0.803,0,1.643-0.168,2.254-0.707c0.613-0.553,0.865-1.428,0.865-2.65v-3.312
	c0-0.803,0.021-1.282,0.047-1.679h-1.283L155.722,40.096z M155.542,42.603c0,0.168-0.023,0.372-0.061,0.526
	c-0.168,0.528-0.648,0.889-1.199,0.889c-0.924,0-1.428-0.805-1.428-1.799c0-1.188,0.611-1.907,1.439-1.907
	c0.623,0,1.043,0.407,1.199,0.948c0.035,0.119,0.047,0.264,0.047,0.396v0.947H155.542z M163.847,41.691v3.466h-1.477v-3.298
	c0-0.84-0.313-1.477-1.115-1.477c-0.588,0-0.996,0.42-1.15,0.863c-0.049,0.133-0.063,0.313-0.063,0.48v3.43h-1.484v-4.102
	c0-0.672-0.014-1.235-0.051-1.739h1.297l0.072,0.876h0.035c0.252-0.456,0.887-1.008,1.859-1.008
	C162.79,39.185,163.847,39.844,163.847,41.691z M150.228,37.686c0,0.443-0.324,0.791-0.84,0.791c-0.492,0-0.814-0.348-0.814-0.791
	c0-0.456,0.334-0.805,0.826-0.805C149.903,36.883,150.214,37.229,150.228,37.686z M148.655,39.316h1.486v5.841h-1.486V39.316z"/>
</svg>
